<svg xmlns="http://www.w3.org/2000/svg" width="31" height="25" viewBox="0 0 31 25"><defs><mask id="g3kib" width="2" height="2" x="-1" y="-1"><path fill="#fff" d="M0-1h31v25H0z"/><path d="M12-.063A12 12 0 0 1 22.804 6.71c2.402-1.026 5.736-1.189 6.892.814 1.137 1.97.742 4.287-1.186 6.95l-.65.904c-1.038 1.417-1.662 2.508-1.873 3.272-.212.765-.099 1.525.338 2.281.577 1 1.503 1.416 2.779 1.25.693-.086 1.103-.018 1.231.203.19.328.11.594-.24.795-.706.408-1.568.44-2.585.095-1.018-.345-1.759-.92-2.224-1.727-1.153-1.997-.623-4.324 1.59-6.982l.388-.465c1.892-2.273 2.358-4.244 1.394-5.913-.432-.748-1.52-1-2.722-.956a9.39 9.39 0 0 0-2.687.522c.485 1.303.75 2.713.75 4.185 0 6.628-5.372 12-12 12-6.627 0-12-5.372-12-12 0-6.627 5.373-12 12-12zM11.02 12a1 1 0 1 0 2 0 1 1 0 0 0-2 0zM9.5 6.5a2.5 2.5 0 1 0 5 0 2.5 2.5 0 0 0-5 0zM4 12a2.5 2.5 0 1 0 5 0 2.5 2.5 0 0 0-5 0zm5.5 5.5a2.5 2.5 0 1 0 5 0 2.5 2.5 0 0 0-5 0zM15 12a2.5 2.5 0 1 0 5 0 2.5 2.5 0 0 0-5 0z"/></mask><filter id="g3kia" width="51" height="46" x="-10" y="-11" filterUnits="userSpaceOnUse"><feOffset dy="1" in="SourceGraphic" result="FeOffset1306Out"/><feGaussianBlur in="FeOffset1306Out" result="FeGaussianBlur1307Out" stdDeviation="0 0"/></filter></defs><g><g><g filter="url(#g3kia)"><path fill="none" d="M12-.063A12 12 0 0 1 22.804 6.71c2.402-1.026 5.736-1.189 6.892.814 1.137 1.97.742 4.287-1.186 6.95l-.65.904c-1.038 1.417-1.662 2.508-1.873 3.272-.212.765-.099 1.525.338 2.281.577 1 1.503 1.416 2.779 1.25.693-.086 1.103-.018 1.231.203.19.328.11.594-.24.795-.706.408-1.568.44-2.585.095-1.018-.345-1.759-.92-2.224-1.727-1.153-1.997-.623-4.324 1.59-6.982l.388-.465c1.892-2.273 2.358-4.244 1.394-5.913-.432-.748-1.52-1-2.722-.956a9.39 9.39 0 0 0-2.687.522c.485 1.303.75 2.713.75 4.185 0 6.628-5.372 12-12 12-6.627 0-12-5.372-12-12 0-6.627 5.373-12 12-12zM11.02 12a1 1 0 1 0 2 0 1 1 0 0 0-2 0zM9.5 6.5a2.5 2.5 0 1 0 5 0 2.5 2.5 0 0 0-5 0zM4 12a2.5 2.5 0 1 0 5 0 2.5 2.5 0 0 0-5 0zm5.5 5.5a2.5 2.5 0 1 0 5 0 2.5 2.5 0 0 0-5 0zM15 12a2.5 2.5 0 1 0 5 0 2.5 2.5 0 0 0-5 0z" mask="url(&quot;#g3kib&quot;)"/><path fill="#fff" d="M12-.063A12 12 0 0 1 22.804 6.71c2.402-1.026 5.736-1.189 6.892.814 1.137 1.97.742 4.287-1.186 6.95l-.65.904c-1.038 1.417-1.662 2.508-1.873 3.272-.212.765-.099 1.525.338 2.281.577 1 1.503 1.416 2.779 1.25.693-.086 1.103-.018 1.231.203.19.328.11.594-.24.795-.706.408-1.568.44-2.585.095-1.018-.345-1.759-.92-2.224-1.727-1.153-1.997-.623-4.324 1.59-6.982l.388-.465c1.892-2.273 2.358-4.244 1.394-5.913-.432-.748-1.52-1-2.722-.956a9.39 9.39 0 0 0-2.687.522c.485 1.303.75 2.713.75 4.185 0 6.628-5.372 12-12 12-6.627 0-12-5.372-12-12 0-6.627 5.373-12 12-12zM11.02 12a1 1 0 1 0 2 0 1 1 0 0 0-2 0zM9.5 6.5a2.5 2.5 0 1 0 5 0 2.5 2.5 0 0 0-5 0zM4 12a2.5 2.5 0 1 0 5 0 2.5 2.5 0 0 0-5 0zm5.5 5.5a2.5 2.5 0 1 0 5 0 2.5 2.5 0 0 0-5 0zM15 12a2.5 2.5 0 1 0 5 0 2.5 2.5 0 0 0-5 0z"/></g><path fill="#fff" d="M12-.063A12 12 0 0 1 22.804 6.71c2.402-1.026 5.736-1.189 6.892.814 1.137 1.97.742 4.287-1.186 6.95l-.65.904c-1.038 1.417-1.662 2.508-1.873 3.272-.212.765-.099 1.525.338 2.281.577 1 1.503 1.416 2.779 1.25.693-.086 1.103-.018 1.231.203.19.328.11.594-.24.795-.706.408-1.568.44-2.585.095-1.018-.345-1.759-.92-2.224-1.727-1.153-1.997-.623-4.324 1.59-6.982l.388-.465c1.892-2.273 2.358-4.244 1.394-5.913-.432-.748-1.52-1-2.722-.956a9.39 9.39 0 0 0-2.687.522c.485 1.303.75 2.713.75 4.185 0 6.628-5.372 12-12 12-6.627 0-12-5.372-12-12 0-6.627 5.373-12 12-12zM11.02 12a1 1 0 1 0 2 0 1 1 0 0 0-2 0zM9.5 6.5a2.5 2.5 0 1 0 5 0 2.5 2.5 0 0 0-5 0zM4 12a2.5 2.5 0 1 0 5 0 2.5 2.5 0 0 0-5 0zm5.5 5.5a2.5 2.5 0 1 0 5 0 2.5 2.5 0 0 0-5 0zM15 12a2.5 2.5 0 1 0 5 0 2.5 2.5 0 0 0-5 0z"/><path fill="#d4d4d4" d="M12-.063A12 12 0 0 1 22.804 6.71c2.402-1.026 5.736-1.189 6.892.814 1.137 1.97.742 4.287-1.186 6.95l-.65.904c-1.038 1.417-1.662 2.508-1.873 3.272-.212.765-.099 1.525.338 2.281.577 1 1.503 1.416 2.779 1.25.693-.086 1.103-.018 1.231.203.19.328.11.594-.24.795-.706.408-1.568.44-2.585.095-1.018-.345-1.759-.92-2.224-1.727-1.153-1.997-.623-4.324 1.59-6.982l.388-.465c1.892-2.273 2.358-4.244 1.394-5.913-.432-.748-1.52-1-2.722-.956a9.39 9.39 0 0 0-2.687.522c.485 1.303.75 2.713.75 4.185 0 6.628-5.372 12-12 12-6.627 0-12-5.372-12-12 0-6.627 5.373-12 12-12zM11.02 12a1 1 0 1 0 2 0 1 1 0 0 0-2 0zM9.5 6.5a2.5 2.5 0 1 0 5 0 2.5 2.5 0 0 0-5 0zM4 12a2.5 2.5 0 1 0 5 0 2.5 2.5 0 0 0-5 0zm5.5 5.5a2.5 2.5 0 1 0 5 0 2.5 2.5 0 0 0-5 0zM15 12a2.5 2.5 0 1 0 5 0 2.5 2.5 0 0 0-5 0z"/></g></g></svg>