<svg xmlns="http://www.w3.org/2000/svg" width="19" height="20" viewBox="0 0 19 20"><defs><mask id="oq3vb" width="2" height="2" x="-1" y="-1"><path fill="#fff" d="M0 0h19v19H0z"/><path d="M9.5 19a9.5 9.5 0 1 1 0-19 9.5 9.5 0 0 1 0 19zm4.704-9.911a.73.73 0 0 0-.73-.731H10.55V5.435a.73.73 0 0 0-.73-.731h-.731a.73.73 0 0 0-.73.73v2.924H5.434a.73.73 0 0 0-.73.73v.731c0 .404.326.731.73.731h2.923v2.923c0 .404.327.731.73.731h.732a.73.73 0 0 0 .73-.73V10.55h2.923a.73.73 0 0 0 .731-.73z"/></mask><filter id="oq3va" width="39" height="40" x="-10" y="-10" filterUnits="userSpaceOnUse"><feOffset dy="1" in="SourceGraphic" result="FeOffset1327Out"/><feGaussianBlur in="FeOffset1327Out" result="FeGaussianBlur1328Out" stdDeviation="0 0"/></filter></defs><g><g><g filter="url(#oq3va)"><path fill="none" d="M9.5 19a9.5 9.5 0 1 1 0-19 9.5 9.5 0 0 1 0 19zm4.704-9.911a.73.73 0 0 0-.73-.731H10.55V5.435a.73.73 0 0 0-.73-.731h-.731a.73.73 0 0 0-.73.73v2.924H5.434a.73.73 0 0 0-.73.73v.731c0 .404.326.731.73.731h2.923v2.923c0 .404.327.731.73.731h.732a.73.73 0 0 0 .73-.73V10.55h2.923a.73.73 0 0 0 .731-.73z" mask="url(&quot;#oq3vb&quot;)"/><path fill="#fff" d="M9.5 19a9.5 9.5 0 1 1 0-19 9.5 9.5 0 0 1 0 19zm4.704-9.911a.73.73 0 0 0-.73-.731H10.55V5.435a.73.73 0 0 0-.73-.731h-.731a.73.73 0 0 0-.73.73v2.924H5.434a.73.73 0 0 0-.73.73v.731c0 .404.326.731.73.731h2.923v2.923c0 .404.327.731.73.731h.732a.73.73 0 0 0 .73-.73V10.55h2.923a.73.73 0 0 0 .731-.73z"/></g><path fill="#bdbdbd" d="M9.5 19a9.5 9.5 0 1 1 0-19 9.5 9.5 0 0 1 0 19zm4.704-9.911a.73.73 0 0 0-.73-.731H10.55V5.435a.73.73 0 0 0-.73-.731h-.731a.73.73 0 0 0-.73.73v2.924H5.434a.73.73 0 0 0-.73.73v.731c0 .404.326.731.73.731h2.923v2.923c0 .404.327.731.73.731h.732a.73.73 0 0 0 .73-.73V10.55h2.923a.73.73 0 0 0 .731-.73z"/></g></g></svg>